<svg xmlns="http://www.w3.org/2000/svg" viewBox="0 0 512 512"><g fill="#fff"><path d="M316.33 195.66a10.67 10.67 0 00-15.08 15.09A63.58 63.58 0 01320 255.99c0 35.29-28.71 64-64 64a63.5 63.5 0 01-45.25-18.75 10.67 10.67 0 00-15.08 15.08 84.64 84.64 0 0060.33 25c47.06 0 85.33-38.26 85.33-85.33 0-22.8-8.87-44.24-25-60.33zM270.87 172.13a85.51 85.51 0 00-14.87-1.47c-47.06 0-85.33 38.27-85.33 85.33 0 5.08.62 10.03 1.5 14.87a10.68 10.68 0 0012.34 8.64 10.68 10.68 0 008.64-12.35 61.85 61.85 0 01-1.15-11.16c0-35.28 28.72-64 64-64 3.84 0 7.53.5 11.16 1.13 5.67 1.15 11.33-2.86 12.35-8.64a10.68 10.68 0 00-8.64-12.35z"/><path d="M509.46 249.1c-2.4-2.86-60.11-70.2-139.71-111.44a10.68 10.68 0 00-9.8 18.96C421.28 188.37 470.26 237.9 487 256c-25.43 27.54-125.5 128-231 128-35.8 0-71.87-8.64-107.26-25.7a10.65 10.65 0 00-14.23 4.97 10.63 10.63 0 004.97 14.23c38.3 18.5 77.5 27.84 116.52 27.84 131.44 0 248.56-136.62 253.48-142.45a10.66 10.66 0 00-.02-13.78zM326 118.95c-24.28-8.17-47.83-12.3-70-12.3-131.43 0-248.55 136.63-253.48 142.45-3.12 3.67-3.37 9-.6 13 1.47 2.1 36.74 52.18 97.86 92.77a10.57 10.57 0 0014.76-3 10.64 10.64 0 00-2.99-14.77c-44.88-29.84-75.6-65.87-87.1-80.53C49 229.9 149.74 127.99 256 127.99c19.86 0 41.13 3.76 63.19 11.16 5.59 2 11.65-1.09 13.5-6.7a10.65 10.65 0 00-6.7-13.5z"/><path d="M444.87 67.13a10.67 10.67 0 00-15.09 0L67.12 429.8a10.67 10.67 0 0015.08 15.08L444.87 82.2a10.67 10.67 0 000-15.08z"/></g></svg>
