<svg viewBox="-24 0 511 512" xmlns="http://www.w3.org/2000/svg"><g fill="#fff"><path d="M15.5 447.2a15 15 0 01-15-15v-279a15 15 0 0125.2-11l150.8 139.5a15 15 0 010 22L25.7 443.2a15 15 0 01-10.2 4zm0 0M448.5 447.2a15 15 0 01-10.2-4L287.5 303.7a15 15 0 010-22l150.8-139.4a15 15 0 0125.2 11V432a15 15 0 01-15 15zm0 0M232 512a15 15 0 01-15-15v-43a15 15 0 1130 0v43a15 15 0 01-15 15zm0-123a15 15 0 01-15-15v-43a15 15 0 1130 0v43a15 15 0 01-15 15zm0-123a15 15 0 01-15-15v-43a15 15 0 1130 0v43a15 15 0 01-15 15zm0-123a15 15 0 01-15-15V85a15 15 0 1130 0v43a15 15 0 01-15 15zm0 0"/><path d="M408.5 48.3a15 15 0 00-15 14.5A237 237 0 0053.3 82.2 15 15 0 1076 101.8 207 207 0 01374 85.5h-2.7a15 15 0 000 30h37.3a15 15 0 0015-15V63.3a15 15 0 00-15-15zm0 0"/></g></svg>
