<svg viewBox="0 0 512 512" xmlns="http://www.w3.org/2000/svg"><g fill-rule="evenodd"><path d="M397 142h52c8 0 15-6 15-15v-16c0-45-28-85-67-102v6zm0 0M34 337H15a15 15 0 000 30h22c-2-4-3-9-3-15zm0 0M497 337H259c-8 12-18 22-28 30h42v130a15 15 0 1030 0V367h194a15 15 0 100-30zm0 0M160 62h2c-15 20-26 42-31 67 33-20 70-30 109-30 25 0 45 20 45 45v112c0 18-4 35-10 51h73c12-19 19-42 19-67V15c0-8-6-15-15-15h-64c-36 0-69 12-96 32h-32c-10 0-18-8-18-17a15 15 0 10-30 0c0 26 22 47 48 47zm143-13a15 15 0 110 30 15 15 0 010-30zm0 0M129 497c0 8 6 15 15 15 52 0 95-43 95-95v-20H129zm0 0"/><path d="M255 256V144c0-9-7-15-15-15-97 0-176 78-176 175v48c0 9 7 15 15 15h65c61 0 111-49 111-111zm0 0"/></g></svg>
