<svg viewBox="0 0 496 496" xmlns="http://www.w3.org/2000/svg"><path d="M488 472h-8s-24.64-56-104-56c-10.8 0-36.08 10.48-54.08 22.64C291.04 459.52 233.68 488 176 488c-93.92 0-136-52.24-136-104 0-6.56 1.44-13.76 3.68-21.28l.8.8A123 123 0 0072 384.33C72.16 417.45 99.44 456 176 456c47.84 0 97.52-23.28 128-43.84 22.4-15.12 51.36-28.16 72-28.16 60.64 0 112 30.56 112 88zm0 0" fill="#ffeaa7"/><path d="M384 48c3.6 25.2-1.6 50.56-14 72.24a31.84 31.84 0 0129.04 39.6 31.7 31.7 0 01-23.36 23.27 32.04 32.04 0 01-38.8-24l-17.2 17.2a113.93 113.93 0 00-24.32 36.08l-45.92 109.13a123.85 123.85 0 01-26.64 39.68l-2.32 2.32a125.31 125.31 0 01-40.4 27.04 125 125 0 01-47.6 9.44c-22 0-42.56-5.68-60.48-15.68a122.77 122.77 0 01-28.32-21.6A123.76 123.76 0 018 275.51a124.5 124.5 0 0136.48-88l2.32-2.32a123.64 123.64 0 0139.68-26.64l109.12-45.92c13.44-5.68 25.76-14 36.08-24.32l17.2-17.2a32.04 32.04 0 01-24-38.8 31.71 31.71 0 0123.28-23.36A31.84 31.84 0 01287.76 38 113.27 113.27 0 01360 24zm0 0" fill="#e6e9ed"/><path d="M395.04 12.96a16.96 16.96 0 010 24L384 48l-24-24 11.04-11.04a16.96 16.96 0 0124 0zm0 0" fill="#ffeaa7"/><path d="M236.55 249.15l6.2-14.75 14.75 6.2-6.2 14.75zm0 0M248.97 219.66l6.2-14.75 14.75 6.2-6.2 14.75zm0 0M224.1 278.63l6.22-14.76 14.73 6.2-6.2 14.76zm0 0M143.36 160.62l19-8 6.21 14.75-19 8zm0 0M127.63 375.88l.75-15.99A84.31 84.31 0 0148 275.54a83.94 83.94 0 0124.73-59.72l2.32-2.3A84.03 84.03 0 01102 195.4l28.57-12.03-6.2-14.75-28.58 12.03a100.06 100.06 0 00-32.05 21.54l-2.3 2.31A99.84 99.84 0 0032 275.54c0 53.72 42 97.79 95.63 100.34zm0 0M328 56a8 8 0 11-16 0 8 8 0 0116 0zm0 0M360 88a8 8 0 11-16 0 8 8 0 0116 0zm0 0"/><path d="M376 376c-24.14 0-55.33 15.23-76.47 29.5-14.8 9.96-67.4 42.5-123.53 42.5-59.8 0-86.98-24.64-94-50.04A131.68 131.68 0 00132.46 408c35.38 0 68.65-13.79 93.65-38.8l2.32-2.31a131.9 131.9 0 0028.41-42.26l45.94-109.11a104.8 104.8 0 0122.56-33.54l8.81-8.81a40.32 40.32 0 0012.74 12.78 40.18 40.18 0 0030.57 4.96 39.63 39.63 0 0029.4-29.2 40.23 40.23 0 00-6.62-33.34 39.91 39.91 0 00-18.34-13.75 121.6 121.6 0 0010.46-63.66l8.34-8.34A25 25 0 00383.04 0c-6.68.01-12.95 2.6-17.67 7.32l-8.33 8.34a121.92 121.92 0 00-63.66 10.46 39.97 39.97 0 00-13.75-18.34 40.1 40.1 0 00-33.34-6.62 39.6 39.6 0 00-29.18 29.4 40.14 40.14 0 004.95 30.57 40.46 40.46 0 0012.78 12.74l-8.82 8.81a104.56 104.56 0 01-33.54 22.55L83.36 151.17a131.85 131.85 0 00-42.25 28.42l-2.32 2.3A131.57 131.57 0 000 275.54c0 34.39 13.29 65.66 34.85 89.23C32.98 371.82 32 378.17 32 384c0 55.75 44.53 112 144 112 69.77 0 132.73-38.82 150.36-50.71 17.78-12 41.28-21.29 49.64-21.29 72.8 0 95.75 49.17 96.68 51.22l2.1 4.78H496v-8c0-57.43-48.22-96-120-96zm7.03-360a8.98 8.98 0 016.35 15.31L384 36.7 371.31 24l5.38-5.38a8.9 8.9 0 016.34-2.62zM50.11 193.2l2.3-2.31c10.7-10.7 23.2-19.1 37.16-24.98l109.11-45.93a120.66 120.66 0 0038.65-26l27.42-27.41-14.1-3.23a24.23 24.23 0 01-15.03-10.7c-3.4-5.43-4.44-12-2.94-18.49A23.82 23.82 0 01256.01 16c5.1 0 9.97 1.57 14.1 4.63a24.02 24.02 0 019.7 17.86l.82 12.83 11.15-6.4a105.6 105.6 0 0164.5-13.35l20.15 20.16a105.7 105.7 0 01-13.34 64.5l-6.4 11.15 12.83.82a24.03 24.03 0 0117.85 9.7c4.25 5.75 5.64 12.9 3.92 20.13-2 8.4-9 15.35-17.44 17.3a24.23 24.23 0 01-18.48-2.92 24.26 24.26 0 01-10.7-15.03l-3.23-14.1-27.42 27.4a120.79 120.79 0 00-26 38.66l-45.93 109.1a116.27 116.27 0 01-24.98 37.16l-2.32 2.31A115.76 115.76 0 01132.45 392C68.24 392 16 339.76 16 275.54c0-31.1 12.11-60.34 34.1-82.34zM376 408c-14.18 0-41.46 12.47-58.59 24.02C283.03 455.22 227.83 480 176 480c-88.43 0-128-48.21-128-96 0-1.84.31-3.96.59-6.03 4.91 4.04 10.2 7.62 15.68 10.92C66.77 424.54 97 464 176 464c60.66 0 116.73-34.63 132.47-45.24C332.6 402.5 359.1 392 376 392c45.63 0 91.62 19.21 101.89 61.62C464.06 435.59 433.5 408 376 408zm0 0"/></svg>
